<?xml version="1.0" encoding="UTF-8"?>
<svg id="Layer_1" data-name="Layer 1" xmlns="http://www.w3.org/2000/svg" viewBox="0 0 784.721 694">
  <defs>
    <style>
      .cls-1 {
        fill: #fff;
      }
    </style>
  </defs>
  <circle cx="437.721" cy="347" r="347"/>
  <g>
    <g>
      <path class="cls-1" d="m438.18,673.415c-37.195,0-73.688-6.21-108.465-18.457-33.615-11.838-64.925-29.05-93.061-51.158-52.076-40.919-90.846-97.357-110.344-160.195H40c-6.672,0-12.905-3.327-16.618-8.872-3.712-5.544-4.416-12.574-1.875-18.744l21.26-51.62c3.086-7.493,10.389-12.384,18.493-12.384h50.538c-.025-1.662-.038-3.321-.038-4.979,0-1.846.016-3.693.046-5.54H40c-6.672,0-12.905-3.328-16.618-8.872-3.712-5.544-4.416-12.575-1.875-18.744l21.26-51.62c3.086-7.493,10.389-12.384,18.493-12.384h65.208C168.648,114.094,294.659,20.585,438.18,20.585c86.777,0,168.461,33.667,230.004,94.8,5.829,5.79,7.523,14.556,4.273,22.102l-23.26,54c-2.736,6.354-8.563,10.842-15.405,11.867-.99.148-1.98.221-2.965.221-5.819,0-11.411-2.543-15.242-7.053-44.334-52.2-108.996-82.137-177.405-82.137-92.122,0-173.939,53.415-211.46,135.46h368.92c6.582,0,12.742,3.238,16.475,8.66,3.731,5.421,4.558,12.333,2.207,18.48l-19.73,51.62c-2.96,7.744-10.391,12.859-18.682,12.859H205.625c-.043,1.851-.065,3.703-.065,5.55,0,1.656.018,3.313.052,4.97h347.028c6.583,0,12.743,3.239,16.476,8.661,3.731,5.423,4.557,12.334,2.205,18.482l-19.74,51.62c-2.961,7.743-10.392,12.856-18.681,12.856H226.457c37.386,82.387,119.318,136.03,211.723,136.03,68.352,0,132.977-29.894,177.305-82.017,3.875-4.557,9.485-7.044,15.239-7.044,2.311,0,4.645.401,6.898,1.229,7.869,2.894,13.098,10.388,13.098,18.771v74.81c0,6.038-2.729,11.753-7.423,15.551-28.419,22.984-60.196,40.896-94.448,53.236-35.439,12.769-72.674,19.243-110.669,19.243Z"/>
      <path d="m438.18,40.585c84.24,0,160.54,33.99,215.91,88.99l-23.26,54c-46.34-54.56-115.45-89.19-192.65-89.19-112.61,0-208,73.68-240.61,175.46h398.07l-19.73,51.62H186.83c-.84,8.4-1.27,16.93-1.27,25.55,0,8.43.41,16.76,1.22,24.97h365.86l-19.74,51.62H197.39c32.43,102.07,127.97,176.03,240.79,176.03,77.13,0,146.2-34.57,192.54-89.06v74.81c-52.61,42.55-119.61,68.03-192.54,68.03-142.78,0-262.75-97.64-296.76-229.81H40l21.26-51.62h71.51c-.67-8.24-1.01-16.57-1.01-24.98,0-8.6.35-17.12,1.05-25.54H40l21.26-51.62h80.3C175.77,137.965,295.6,40.585,438.18,40.585m0-40c-39.409,0-78.086,6.575-114.957,19.542-35.638,12.533-68.838,30.755-98.677,54.16-29.529,23.161-54.977,50.77-75.637,82.06-15.226,23.061-27.556,47.684-36.826,73.498h-50.822c-16.208,0-30.814,9.781-36.986,24.767l-21.26,51.62c-5.082,12.339-3.676,26.401,3.75,37.489,4.264,6.367,10.19,11.273,16.989,14.296l-20.739,50.355c-5.082,12.339-3.676,26.401,3.75,37.489,7.425,11.088,19.891,17.744,33.236,17.744h71.885c9.238,25.87,21.546,50.545,36.762,73.661,20.646,31.363,46.098,59.039,75.65,82.26,29.86,23.463,63.092,41.731,98.774,54.297,36.917,13.001,75.645,19.593,115.108,19.593,40.313,0,79.828-6.873,117.449-20.427,36.359-13.1,70.086-32.11,100.245-56.502,9.39-7.594,14.846-19.025,14.846-31.101v-74.81c0-16.767-10.458-31.755-26.195-37.542-4.508-1.658-9.177-2.459-13.797-2.46-11.51,0-22.728,4.974-30.479,14.088-40.52,47.647-99.592,74.974-162.069,74.974-73.352,0-139.484-36.98-177.995-96.03h272.715c16.579,0,31.44-10.227,37.361-25.713l19.74-51.62c3.42-8.943,3.481-18.693.388-27.518,10.332-4.014,18.769-12.241,22.885-23.008l19.73-51.62c4.7-12.296,3.049-26.118-4.415-36.961-7.464-10.843-19.785-17.32-32.949-17.32h-335.069c38.582-58.708,104.55-95.46,177.609-95.46,62.529,0,121.635,27.367,162.163,75.084,7.661,9.02,18.846,14.106,30.483,14.106,1.969,0,3.95-.145,5.93-.442,13.684-2.05,25.337-11.026,30.811-23.735l23.26-54c6.5-15.091,3.11-32.623-8.548-44.203-31.757-31.545-68.7-56.311-109.802-73.609C529.905,9.67,484.721.585,438.18.585h0Z"/>
    </g>
    <path d="m690.81,347.015c0,62.39-22.62,119.49-60.09,163.56-46.34,54.49-115.41,89.06-192.54,89.06-112.82,0-208.36-73.96-240.79-176.03-5.26-16.53-8.86-33.8-10.61-51.62-.81-8.21-1.22-16.54-1.22-24.97,0-8.62.43-17.15,1.27-25.55,1.8-17.82,5.44-35.09,10.74-51.62,32.61-101.78,128-175.46,240.61-175.46,77.2,0,146.31,34.63,192.65,89.19,37.41,44.06,59.98,101.12,59.98,163.44Z"/>
    <path class="cls-1" d="m635.139,347.014c0,48.641-17.635,93.158-46.848,127.516-36.128,42.482-89.977,69.434-150.11,69.434-87.958,0-162.444-57.661-187.727-137.238-4.101-12.887-6.908-26.352-8.272-40.245-.631-6.401-.951-12.895-.951-19.467,0-6.72.335-13.371.99-19.92,1.403-13.893,4.241-27.357,8.373-40.245,25.424-79.351,99.793-136.794,187.587-136.794,60.187,0,114.068,26.999,150.196,69.535,29.166,34.351,46.762,78.836,46.762,127.423Z"/>
  </g>
  <g>
    <circle cx="439.506" cy="347" r="148.144"/>
    <circle class="cls-1" cx="439.506" cy="273.282" r="35.656"/>
  </g>
</svg>