<?xml version="1.0" standalone="no"?>
<!DOCTYPE svg PUBLIC "-//W3C//DTD SVG 20010904//EN"
 "http://www.w3.org/TR/2001/REC-SVG-20010904/DTD/svg10.dtd">
<svg version="1.0" xmlns="http://www.w3.org/2000/svg"
 width="1636.000000pt" height="1636.000000pt" viewBox="0 0 1636.000000 1636.000000"
 preserveAspectRatio="xMidYMid meet">
<metadata>
Created by potrace 1.14, written by Peter Selinger 2001-2017
</metadata>
<g transform="translate(0.000000,1636.000000) scale(0.100000,-0.100000)"
fill="#000000" stroke="none">
<path d="M8847 15404 c-1 -1 -49 -5 -107 -8 -185 -11 -239 -15 -395 -32 -85
-9 -116 -13 -230 -29 -105 -14 -126 -17 -205 -31 -19 -3 -48 -8 -65 -11 -16
-2 -64 -11 -105 -19 -41 -9 -85 -18 -96 -20 -62 -12 -293 -66 -320 -74 -17 -6
-40 -12 -50 -15 -201 -43 -681 -207 -974 -333 -269 -115 -581 -270 -778 -387
-302 -178 -590 -371 -798 -534 -39 -31 -86 -67 -104 -81 -18 -14 -38 -30 -44
-35 -6 -6 -36 -30 -66 -55 -30 -25 -57 -47 -60 -50 -3 -3 -23 -20 -45 -39
-202 -171 -514 -481 -726 -721 -101 -115 -304 -371 -405 -510 -96 -133 -254
-366 -254 -375 0 -3 -15 -27 -33 -53 -60 -86 -295 -504 -336 -597 -5 -11 -35
-74 -66 -140 -75 -156 -199 -453 -258 -617 -4 -10 -14 -18 -24 -19 -10 0 -274
-1 -588 -3 -555 -3 -572 -3 -645 -25 -214 -63 -392 -199 -500 -381 -22 -36
-102 -220 -180 -410 -77 -190 -145 -354 -150 -365 -22 -46 -164 -394 -182
-445 -31 -90 -49 -189 -49 -279 1 -78 3 -100 16 -166 32 -159 106 -300 220
-419 52 -54 157 -132 211 -156 24 -11 44 -23 44 -26 0 -5 -111 -277 -130 -319
-5 -11 -57 -137 -115 -280 -58 -143 -110 -269 -115 -280 -44 -95 -101 -254
-114 -317 -66 -318 59 -640 325 -842 73 -55 207 -119 279 -132 14 -3 43 -10
65 -16 28 -8 281 -12 829 -12 l789 -1 22 -55 c13 -30 42 -104 65 -165 24 -60
51 -128 60 -150 280 -649 584 -1160 1014 -1705 50 -63 93 -117 96 -120 3 -3
30 -34 60 -70 112 -132 223 -252 380 -409 160 -161 345 -331 480 -441 30 -25
57 -47 60 -50 36 -42 439 -337 605 -445 66 -43 132 -86 147 -96 15 -11 30 -19
34 -19 4 0 15 -6 23 -14 14 -12 102 -64 251 -149 418 -237 974 -471 1455 -612
50 -14 110 -32 135 -40 45 -14 184 -49 230 -59 14 -3 68 -15 120 -27 52 -11
104 -22 115 -25 11 -2 31 -6 45 -9 21 -5 84 -16 220 -40 14 -3 45 -7 70 -11
25 -3 52 -7 60 -9 8 -2 38 -7 65 -10 28 -4 61 -8 75 -11 14 -2 53 -6 87 -9 34
-3 70 -8 81 -10 11 -2 59 -6 108 -10 49 -4 105 -8 124 -10 162 -17 705 -23
885 -11 44 3 123 8 175 11 52 3 109 8 125 10 17 2 62 7 100 10 39 4 81 8 95
10 14 2 52 7 85 10 33 4 67 8 75 10 8 2 35 7 60 10 25 3 56 8 70 10 14 3 40 7
58 10 391 62 846 181 1267 332 55 19 119 44 142 54 23 11 45 19 49 19 18 0
343 144 519 231 851 416 1633 1011 2240 1705 33 37 74 84 91 104 27 31 154
188 239 295 17 21 34 45 39 54 5 9 12 18 15 21 16 13 111 149 245 350 111 168
347 564 351 590 1 3 16 34 35 70 170 328 305 646 427 1010 30 91 57 172 59
180 2 8 15 53 29 100 13 47 27 98 30 114 3 16 8 33 11 38 3 5 8 24 11 41 3 18
9 40 14 50 5 9 7 17 5 17 -3 0 -1 11 4 26 6 14 12 39 15 57 3 18 10 48 15 67
5 19 11 46 14 60 2 14 9 45 15 70 5 25 12 56 14 70 3 14 8 43 12 65 13 70 15
79 24 135 6 30 12 71 15 90 12 90 19 137 22 155 2 11 7 45 10 75 3 30 7 66 10
80 2 14 6 61 10 105 3 44 7 91 9 105 19 112 27 832 12 1035 -4 55 -10 129 -12
165 -4 62 -12 137 -21 206 -2 17 -6 51 -8 75 -3 24 -7 62 -11 84 -8 56 -15
103 -21 150 -4 22 -15 87 -26 145 -10 58 -21 121 -24 140 -3 19 -9 51 -14 70
-5 19 -11 49 -14 66 -12 70 -101 410 -146 559 -58 189 -153 464 -195 560 -7
17 -28 66 -45 110 -17 44 -43 105 -57 135 -14 30 -45 98 -69 151 -62 135 -182
369 -254 494 -13 22 -33 58 -45 80 -94 170 -298 477 -465 700 -275 366 -564
686 -895 991 -106 98 -138 126 -255 224 -29 25 -65 55 -79 67 -123 105 -397
304 -601 438 -91 59 -177 116 -192 126 -15 11 -30 19 -32 19 -3 0 -34 17 -68
38 -175 107 -503 276 -743 382 -74 33 -138 60 -141 60 -3 0 -24 9 -47 19 -149
68 -688 252 -837 286 -8 2 -78 19 -155 39 -77 19 -151 37 -165 39 -14 3 -54
12 -90 20 -36 8 -83 18 -105 21 -22 4 -47 8 -55 11 -8 2 -33 6 -54 10 -21 3
-48 7 -60 10 -12 2 -38 7 -58 10 -56 8 -110 16 -138 21 -14 2 -65 9 -115 14
-49 6 -106 12 -125 15 -59 7 -224 21 -375 31 -89 6 -683 13 -688 8z"/>
</g>
</svg>
